<svg width="18" height="20" viewBox="0 0 18 20" fill="none" xmlns="http://www.w3.org/2000/svg">
<path d="M13.1015 7.63162L5.03381 2.97928" stroke="white" stroke-width="1.5" stroke-linecap="round" stroke-linejoin="round"/>
<path d="M17.1353 13.5478V6.37659C17.135 6.0622 17.052 5.75342 16.8946 5.48123C16.7373 5.20903 16.5111 4.983 16.2389 4.82581L9.96404 1.24019C9.6915 1.08284 9.38234 1 9.06764 1C8.75293 1 8.44378 1.08284 8.17123 1.24019L1.8964 4.82581C1.62413 4.983 1.39799 5.20903 1.24065 5.48123C1.08331 5.75342 1.00032 6.0622 1 6.37659V13.5478C1.00032 13.8622 1.08331 14.171 1.24065 14.4432C1.39799 14.7154 1.62413 14.9414 1.8964 15.0986L8.17123 18.6842C8.44378 18.8416 8.75293 18.9244 9.06764 18.9244C9.38234 18.9244 9.6915 18.8416 9.96404 18.6842L16.2389 15.0986C16.5111 14.9414 16.7373 14.7154 16.8946 14.4432C17.052 14.171 17.135 13.8622 17.1353 13.5478Z" stroke="white" stroke-width="1.5" stroke-linecap="round" stroke-linejoin="round"/>
<path d="M1.24158 5.44437L9.06719 9.97121L16.8928 5.44437" stroke="white" stroke-width="1.5" stroke-linecap="round" stroke-linejoin="round"/>
<path d="M9.06763 18.998V9.96228" stroke="white" stroke-width="1.5" stroke-linecap="round" stroke-linejoin="round"/>
</svg>
