<svg width="12" height="10" viewBox="0 0 12 10" fill="none" xmlns="http://www.w3.org/2000/svg">
<path d="M10.9648 7.82827C10.9648 8.06937 10.8664 8.3006 10.6913 8.47109C10.5161 8.64158 10.2786 8.73736 10.0309 8.73736H1.62536C1.37766 8.73736 1.1401 8.64158 0.964954 8.47109C0.789804 8.3006 0.691406 8.06937 0.691406 7.82827V2.82827C0.691406 2.58716 0.789804 2.35593 0.964954 2.18544C1.1401 2.01496 1.37766 1.91918 1.62536 1.91918H3.49325L4.4272 0.555542H7.22905L8.163 1.91918H10.0309C10.2786 1.91918 10.5161 2.01496 10.6913 2.18544C10.8664 2.35593 10.9648 2.58716 10.9648 2.82827V7.82827Z" stroke="#FF5448" stroke-linecap="round" stroke-linejoin="round"/>
<path d="M5.82823 6.91859C6.85985 6.91859 7.69614 6.10456 7.69614 5.10041C7.69614 4.09625 6.85985 3.28223 5.82823 3.28223C4.79662 3.28223 3.96033 4.09625 3.96033 5.10041C3.96033 6.10456 4.79662 6.91859 5.82823 6.91859Z" stroke="#FF5448" stroke-linecap="round" stroke-linejoin="round"/>
</svg>
