<svg width="21" height="18" viewBox="0 0 21 18" fill="none" xmlns="http://www.w3.org/2000/svg">
<path d="M14.1316 1.45459H1.55566V12.3538H14.1316V1.45459Z" stroke="white" stroke-width="1.5" stroke-linecap="round" stroke-linejoin="round"/>
<path d="M14.1309 5.64635H17.4844L19.9996 8.16154V12.3535H14.1309V5.64635Z" stroke="white" stroke-width="1.5" stroke-linecap="round" stroke-linejoin="round"/>
<path d="M5.3278 16.5457C6.48539 16.5457 7.4238 15.6073 7.4238 14.4497C7.4238 13.2921 6.48539 12.3537 5.3278 12.3537C4.17022 12.3537 3.23181 13.2921 3.23181 14.4497C3.23181 15.6073 4.17022 16.5457 5.3278 16.5457Z" stroke="white" stroke-width="1.5" stroke-linecap="round" stroke-linejoin="round"/>
<path d="M16.2269 16.5457C17.3844 16.5457 18.3228 15.6073 18.3228 14.4497C18.3228 13.2921 17.3844 12.3537 16.2269 12.3537C15.0693 12.3537 14.1309 13.2921 14.1309 14.4497C14.1309 15.6073 15.0693 16.5457 16.2269 16.5457Z" stroke="white" stroke-width="1.5" stroke-linecap="round" stroke-linejoin="round"/>
</svg>
