<svg width="16" height="18" viewBox="0 0 16 18" fill="none" xmlns="http://www.w3.org/2000/svg"><path d="M3.25 1L1 4.2v11.2c0 .424.159.831.44 1.131.281.3.663.469 1.06.469H13c.399 0 .78-.169 1.061-.469.282-.3.44-.707.44-1.131V4.2L12.25 1h-9zM1 4.2h13.5" stroke="#FF7C76" stroke-width="1.5" stroke-linecap="round" stroke-linejoin="round"/><path d="M10.75 7.4a3.31 3.31 0 0 1-.879 2.263 2.91 2.91 0 0 1-2.121.937 2.908 2.908 0 0 1-2.122-.937A3.311 3.311 0 0 1 4.75 7.4" stroke="#FF7C76" stroke-width="1.5" stroke-linecap="round" stroke-linejoin="round"/></svg>